<?xml version="1.0" standalone="no"?>
<!DOCTYPE svg PUBLIC "-//W3C//DTD SVG 20010904//EN"
 "http://www.w3.org/TR/2001/REC-SVG-20010904/DTD/svg10.dtd">
<svg version="1.0" xmlns="http://www.w3.org/2000/svg"
 width="945.000000pt" height="945.000000pt" viewBox="0 0 945.000000 945.000000"
 preserveAspectRatio="xMidYMid meet">
<metadata>
Created by potrace 1.11, written by Peter Selinger 2001-2013
</metadata>
<g transform="translate(0.000000,945.000000) scale(0.100000,-0.100000)"
fill="#000000" stroke="none">
<path d="M4435 9439 c-1020 -60 -2016 -466 -2795 -1138 -195 -168 -466 -452
-626 -656 -973 -1237 -1266 -2874 -783 -4373 123 -379 295 -746 512 -1087 312
-490 740 -942 1222 -1292 1114 -807 2548 -1085 3893 -753 496 123 972 327
1405 602 569 362 1083 876 1445 1445 756 1189 943 2650 511 3991 -283 877
-814 1645 -1549 2238 -894 723 -2061 1092 -3235 1023z m-1213 -4004 c264 -786
535 -1603 604 -1815 68 -212 127 -392 130 -400 3 -8 86 221 183 510 97 289
379 1113 626 1832 l450 1308 388 0 387 0 0 -2145 0 -2145 -280 0 -280 0 -2
1779 -3 1778 -617 -1776 -616 -1776 -260 -3 -260 -2 -35 102 c-239 711 -1192
3507 -1198 3518 -5 8 -9 -802 -9 -1802 l0 -1818 -275 0 -275 0 0 2145 0 2145
432 -2 432 -3 478 -1430z m4348 -710 l0 -2145 -285 0 -285 0 0 2145 0 2145
285 0 285 0 0 -2145z"/>
</g>
</svg>
